name 900006_16EmgEnv.mot
datacolumns 51
datarows 10
range 0.70092589 0.70925927
endheader

                time	   rect_fem_r_emgRec	   rect_fem_l_emgRec	   med_hams_r_emgRec	   med_hams_l_emgRec	   lat_hams_r_emgRec	   lat_hams_l_emgRec	    tib_ant_r_emgRec	    tib_ant_l_emgRec	    gas_sol_r_emgRec	    gas_sol_l_emgRec	   rect_fem_r_emgEnv	   rect_fem_l_emgEnv	   med_hams_r_emgEnv	   med_hams_l_emgEnv	   lat_hams_r_emgEnv	   lat_hams_l_emgEnv	    tib_ant_r_emgEnv	    tib_ant_l_emgEnv	    gas_sol_r_emgEnv	    gas_sol_l_emgEnv	   rect_fem_r_emgAve	   rect_fem_l_emgAve	   med_hams_r_emgAve	   med_hams_l_emgAve	   lat_hams_r_emgAve	   lat_hams_l_emgAve	    tib_ant_r_emgAve	    tib_ant_l_emgAve	    gas_sol_r_emgAve	    gas_sol_l_emgAve	   rect_fem_r_emgSDp	   rect_fem_l_emgSDp	   med_hams_r_emgSDp	   med_hams_l_emgSDp	   lat_hams_r_emgSDp	   lat_hams_l_emgSDp	    tib_ant_r_emgSDp	    tib_ant_l_emgSDp	    gas_sol_r_emgSDp	    gas_sol_l_emgSDp	   rect_fem_r_emgSDm	   rect_fem_l_emgSDm	   med_hams_r_emgSDm	   med_hams_l_emgSDm	   lat_hams_r_emgSDm	   lat_hams_l_emgSDm	    tib_ant_r_emgSDm	    tib_ant_l_emgSDm	    gas_sol_r_emgSDm	    gas_sol_l_emgSDm	
          0.70092589	          0.84573995	          0.14157596	          0.42005247	          0.14491516	          0.08761060	          0.08715499	          0.05597880	          0.01900103	          0.01153855	          0.01970192	          0.64175880	          0.20590130	          0.88989364	          0.62663551	          0.14225897	          0.79211441	          0.23567258	          0.33786021	          0.07388073	          0.36580940	          0.55490303	          0.22976299	          0.42537844	          0.13655832	          0.10572553	          0.15987736	          0.59165430	          0.11510222	          0.08343325	          0.09694735	          0.73952471	          0.40817964	          0.61731866	          0.30501418	          0.14068652	          0.40796922	          0.80636866	          0.24193567	          0.08280073	          0.24150474	          0.37028135	          0.05134633	          0.23343822	         -0.03189753	          0.07076455	         -0.08821450	          0.37693994	         -0.01173124	          0.08406576	         -0.04761004	
          0.70185184	          0.73626847	          0.08905863	          0.32001778	          0.20688290	          0.08168888	          0.00723843	          0.03202535	          0.03562413	          0.02495068	          0.02863588	          0.63232700	          0.20204997	          0.90109289	          0.63291884	          0.14205362	          0.79598863	          0.23520604	          0.33491093	          0.07400831	          0.35761077	          0.55518091	          0.22683227	          0.42439678	          0.13617675	          0.10495532	          0.15910144	          0.58925480	          0.11493101	          0.08338995	          0.09639961	          0.74023436	          0.40372804	          0.61672141	          0.30422454	          0.13934337	          0.40639089	          0.80409116	          0.24156622	          0.08270134	          0.23983545	          0.37012745	          0.04993650	          0.23207216	         -0.03187104	          0.07056728	         -0.08818801	          0.37441844	         -0.01170420	          0.08407855	         -0.04703622	
          0.70277774	          0.49331592	          0.06030858	          0.15156306	          0.13755450	          0.06382021	          0.07379879	          0.02754818	          0.02601166	          0.03330353	          0.05413684	          0.62308204	          0.19829348	          0.91178142	          0.63885599	          0.14182446	          0.79946398	          0.23477680	          0.33200271	          0.07414273	          0.34939470	          0.55543905	          0.22388323	          0.42339602	          0.13578536	          0.10418880	          0.15831019	          0.58684778	          0.11477957	          0.08335636	          0.09589792	          0.74091820	          0.39922257	          0.61608753	          0.30340201	          0.13800878	          0.40474012	          0.80180660	          0.24122328	          0.08262509	          0.23820528	          0.36995991	          0.04854389	          0.23070452	         -0.03183129	          0.07036882	         -0.08811975	          0.37188897	         -0.01166414	          0.08408763	         -0.04640944	
          0.70370370	          0.30178623	          0.02249963	          0.08255554	          0.04738944	          0.01574375	          0.17652485	          0.08396399	          0.05012861	          0.02652517	          0.06097342	          0.61403267	          0.19462804	          0.92193928	          0.64442899	          0.14157096	          0.80252873	          0.23438519	          0.32913769	          0.07428362	          0.34117359	          0.55567712	          0.22091663	          0.42237610	          0.13538408	          0.10342596	          0.15750366	          0.58443362	          0.11464842	          0.08333268	          0.09544184	          0.74157593	          0.39466467	          0.61541681	          0.30254671	          0.13668280	          0.40301758	          0.79951541	          0.24090781	          0.08257227	          0.23661431	          0.36977831	          0.04716858	          0.22933538	         -0.03177854	          0.07016911	         -0.08801025	          0.36935182	         -0.01161096	          0.08409309	         -0.04573063	
          0.70462960	          0.15485887	          0.02387832	          0.07795794	          0.02075792	          0.02440673	          0.13607127	          0.11068904	          0.02328126	          0.01515660	          0.05043637	          0.60518692	          0.19104968	          0.93154730	          0.64962036	          0.14129264	          0.80517145	          0.23403150	          0.32631769	          0.07443059	          0.33295961	          0.55589557	          0.21793418	          0.42133704	          0.13497306	          0.10266707	          0.15668213	          0.58201307	          0.11453824	          0.08331908	          0.09503083	          0.74220783	          0.39005718	          0.61470909	          0.30165903	          0.13536587	          0.40122433	          0.79721841	          0.24062089	          0.08254322	          0.23506272	          0.36958331	          0.04581118	          0.22796498	         -0.03171290	          0.06996827	         -0.08786006	          0.36680773	         -0.01154440	          0.08409493	         -0.04500106	
          0.70555556	          0.07172061	          0.03186041	          0.60983339	          0.09307411	          0.03093738	          0.49904276	          0.05126167	          0.04202771	          0.00011417	          0.06446157	          0.59655218	          0.18755434	          0.94058718	          0.65441316	          0.14098899	          0.80738113	          0.23371593	          0.32354430	          0.07458324	          0.32476467	          0.55609399	          0.21493669	          0.42027876	          0.13455224	          0.10191219	          0.15584575	          0.57958680	          0.11444958	          0.08331573	          0.09466442	          0.74281357	          0.38540173	          0.61396410	          0.30073899	          0.13405809	          0.39936106	          0.79491626	          0.24036340	          0.08253821	          0.23355058	          0.36937441	          0.04447165	          0.22659342	         -0.03163451	          0.06976630	         -0.08766957	          0.36425735	         -0.01146425	          0.08409326	         -0.04422173	
          0.70648146	          0.06018804	          0.04100075	          0.55437178	          0.08625851	          0.01832548	          0.33109067	          0.02068423	          0.13359196	          0.00605540	          0.08098141	          0.58813515	          0.18413785	          0.94904154	          0.65879105	          0.14065956	          0.80914717	          0.23343861	          0.32081879	          0.07474116	          0.31660042	          0.55627263	          0.21192582	          0.41920137	          0.13412178	          0.10116158	          0.15499476	          0.57715529	          0.11438309	          0.08332279	          0.09434208	          0.74339323	          0.38070120	          0.61318175	          0.29978703	          0.13275985	          0.39742890	          0.79260945	          0.24013655	          0.08255751	          0.23207808	          0.36915202	          0.04315044	          0.22522099	         -0.03154348	          0.06956330	         -0.08743939	          0.36170113	         -0.01137038	          0.08408806	         -0.04339393	
          0.70740741	          0.13096049	          0.05970660	          0.14077495	          0.05705354	          0.10233715	          0.12201364	          0.06581656	          0.12354693	          0.00369670	          0.06629569	          0.57994186	          0.18079597	          0.95689399	          0.66273840	          0.14030393	          0.81045950	          0.23319955	          0.31814221	          0.07490395	          0.30847819	          0.55643153	          0.20890252	          0.41810474	          0.13368164	          0.10041527	          0.15412933	          0.57471895	          0.11433937	          0.08334042	          0.09406319	          0.74394688	          0.37595733	          0.61236174	          0.29880330	          0.13147126	          0.39542867	          0.79029842	          0.23994130	          0.08260141	          0.23064512	          0.36891618	          0.04184772	          0.22384773	         -0.03144002	          0.06935928	         -0.08717002	          0.35913949	         -0.01126257	          0.08407943	         -0.04251873	
          0.70833331	          0.11186456	          0.04997624	          0.40243315	          0.05894717	          0.07309964	          0.17949068	          0.08620131	          0.07220153	          0.00758145	          0.07975515	          0.57197770	          0.17752440	          0.96412918	          0.66624030	          0.13992169	          0.81130857	          0.23299863	          0.31551536	          0.07507117	          0.30040897	          0.55657065	          0.20586844	          0.41698888	          0.13323191	          0.09967349	          0.15324976	          0.57227874	          0.11431906	          0.08336880	          0.09382726	          0.74447441	          0.37117307	          0.61150391	          0.29778813	          0.13019268	          0.39336166	          0.78798419	          0.23977876	          0.08267019	          0.22925205	          0.36866689	          0.04056381	          0.22247384	         -0.03132431	          0.06915429	         -0.08686215	          0.35657328	         -0.01114064	          0.08406741	         -0.04159754	
          0.70925927	          0.28247521	          0.03160625	          0.21728626	          0.08988789	          0.02698079	          0.20321316	          0.07791505	          0.05323676	          0.00459465	          0.09190609	          0.56424735	          0.17431879	          0.97073284	          0.66928266	          0.13951248	          0.81168544	          0.23283557	          0.31293883	          0.07524241	          0.29240342	          0.55668998	          0.20282453	          0.41585377	          0.13277262	          0.09893631	          0.15235618	          0.56983477	          0.11432285	          0.08340808	          0.09363360	          0.74497579	          0.36635028	          0.61060813	          0.29674172	          0.12892422	          0.39122863	          0.78566687	          0.23964999	          0.08276411	          0.22789875	          0.36840416	          0.03929879	          0.22109941	         -0.03119648	          0.06894841	         -0.08651628	          0.35400267	         -0.01100429	          0.08405205	         -0.04063156	
